<svg width="512" height="512" viewBox="0 0 512 512" fill="none" xmlns="http://www.w3.org/2000/svg">
  <rect width="512" height="512" rx="128" fill="#6d28d9"/>
  <circle cx="256" cy="256" r="160" fill="#f97316"/>
  <path d="M176 200C176 188.954 184.954 180 196 180H316C327.046 180 336 188.954 336 200V280C336 291.046 327.046 300 316 300H196C184.954 300 176 291.046 176 280V200Z" fill="white"/>
  <path d="M190 328C190 321.373 195.373 316 202 316H310C316.627 316 322 321.373 322 328C322 334.627 316.627 340 310 340H202C195.373 340 190 334.627 190 328Z" fill="white"/>
  <circle cx="216" cy="240" r="16" fill="#6d28d9"/>
  <circle cx="296" cy="240" r="16" fill="#6d28d9"/>
</svg>
